<?xml version="1.0" encoding="iso-8859-1"?>
<!-- Generator: Adobe Illustrator 19.0.0, SVG Export Plug-In . SVG Version: 6.00 Build 0)  -->
<svg xmlns="http://www.w3.org/2000/svg" xmlns:xlink="http://www.w3.org/1999/xlink" version="1.1" id="Layer_1" x="0px" y="0px" viewBox="0 0 511.997 511.997" style="enable-background:new 0 0 511.997 511.997;" xml:space="preserve">
<path style="fill:#646A6D;" d="M242.943,426.654l-5.85,0.594l52.698,48.19h26.635l-4.002-53.581  C292.778,428.388,264.002,429.063,242.943,426.654z"/>
<path style="fill:#4B5256;" d="M291.041,393.737c-22.568,5.049-50.352,5.887-73.474,3.7c-37.159,11.618-8.694,31.332,46.617,31.858  c35.095,0.33,63.627-7.796,63.727-18.161C327.98,403.57,312.864,396.912,291.041,393.737z"/>
<path style="fill:#5A6266;" d="M291.041,393.737c-7.98,1.786-17.122,3.14-27.025,3.956c14.293,10.642,30.049,19.428,46.908,26.009  C340.457,414.57,330.019,399.408,291.041,393.737z"/>
<path style="fill:#646A6D;" d="M283.437,353.146c-30.448,7.444-69.64,8.306-100.886,4.409  c-47.104,15.082-15.448,42.017,59.698,42.017C327.99,399.574,353.916,365.438,283.437,353.146z"/>
<path style="fill:#767B7C;" d="M283.437,353.146c-18.289,4.471-39.168,6.403-58.152,6.663  c11.466,14.704,24.931,27.768,39.984,38.797C334.254,392.676,345.541,363.977,283.437,353.146z"/>
<path style="fill:#4B5256;" d="M286.782,309.317c-42.68,11.286-102.766,11.712-145.749,4.507  c-46.855,19.156-5.167,48.018,79.747,48.018C315.142,361.842,352.913,327.093,286.782,309.317z"/>
<path style="fill:#5A6266;" d="M286.782,309.317c-26.946,7.125-58.64,9.468-86.337,9.3c6.987,15.539,15.894,30.025,26.41,43.17  C317.363,360.208,351.166,326.625,286.782,309.317z"/>
<path style="fill:#646A6D;" d="M288.009,263.584c-48.529,12.611-123.602,13.25-174.847,1.631  c-67.197,21.08-12.846,54.416,90.202,54.416C311.247,319.63,362.32,283.945,288.009,263.584z"/>
<path style="fill:#767B7C;" d="M288.009,263.584c-31.035,8.064-69.413,10.517-101.729,9.791c3.022,16.18,7.976,31.679,14.622,46.246  C309.735,320.272,363.233,284.195,288.009,263.584z"/>
<path style="fill:#4B5256;" d="M295.808,212.22c-55.848,13.49-140.304,15.017-202.868,1.865  c-66.252,23.236-12.282,60.418,104.289,60.418C318.637,274.502,369.949,234.841,295.808,212.22z"/>
<path style="fill:#5A6266;" d="M295.808,212.22c-35.033,8.463-76.534,11.32-112.537,10.91c-1.106,17.255-0.063,34.264,3.203,51.257  C314.127,277.094,372.662,235.668,295.808,212.22z"/>
<path style="fill:#646A6D;" d="M319.584,153.617c-71.957,20.055-187.487,19.834-258.653,0  c-74.434,27.958-10.549,71.553,129.328,71.553C326.091,225.171,396.018,182.336,319.584,153.617z"/>
<path style="fill:#767B7C;" d="M319.584,153.617c-38.506,10.731-84.788,14.667-125.076,14.919  c-6.367,17.838-10.292,36.833-11.364,56.59C322.788,226.798,397.671,182.958,319.584,153.617z"/>
<path style="fill:#4B5256;" d="M341.045,92.406c-76.92,26.805-224.771,26.765-301.574,0c-79.789,32.809,6.123,77.145,150.787,77.145  C336.033,169.551,420.228,124.967,341.045,92.406z"/>
<path style="fill:#5A6266;" d="M341.045,92.406c-28.084,9.786-68.582,16.767-114.982,19.171  c-13.629,17.257-24.482,36.802-31.908,57.96C338.398,168.703,419.152,124.524,341.045,92.406z"/>
<path style="fill:#FF9C01;" d="M446.051,413.545c0.002-1.852,1.468-0.37-32.478-22.912c-0.835-0.555-1.921-0.556-2.757-0.005  c-34.058,22.444-32.591,20.968-32.591,22.824v60.488c0,1.381,1.119,2.499,2.499,2.499c67.739,0,63.549,0.316,64.597-0.732  C446.409,474.617,445.958,478.72,446.051,413.545z"/>
<path style="fill:#FF8103;" d="M401.01,421.03l29.28-19.296c-17.721-11.768-17.628-12.321-19.474-11.105l-31.466,20.736  c-1.606,1.059-1.125-2.286-1.125,62.576c0,1.381,1.119,2.499,2.499,2.499h19.162C399.885,418.825,399.408,422.085,401.01,421.03z"/>
<path style="fill:#3E464C;" d="M424.346,476.44l0.02-25.811c0.01-6.768-5.469-12.264-12.237-12.272  c-6.771-0.01-12.283,5.469-12.291,12.237v25.847h24.507V476.44z"/>
<path style="fill:#8C614B;" d="M504.499,486.437c0-6.625-5.372-11.997-11.997-11.997H19.666c-6.626,0-11.997,5.372-11.997,11.997  v5.776c0,6.626,5.371,11.997,11.997,11.997h472.837c6.625,0,11.997-5.371,11.997-11.997V486.437z"/>
<path style="fill:#725346;" d="M492.503,489.326H19.666c-5.014,0-9.302-3.076-11.097-7.442c-1.106,2.69-0.9,4.158-0.9,10.33  c0,6.626,5.371,11.997,11.997,11.997h472.837c6.625,0,11.997-5.371,11.997-11.997c0-6.172,0.205-7.642-0.901-10.33  C501.805,486.25,497.515,489.326,492.503,489.326z"/>
<path style="fill:#95B737;" d="M442.552,320.314l-4.683-29.98l9.307,4.034c2.068,1.061,5.449,0.235,6.692-2.634  c0.794-1.838,0.875,0.578-5.492-40.182c0.002,0.001,7.17,3.108,7.171,3.11c2.574,1.115,5.564-0.068,6.681-2.643  c0.797-1.848,1.031,1.587-6.999-49.813c-0.692-4.442-3.106-7.858-6.622-9.382c-3.514-1.523-7.659-0.947-11.374,1.584l-39.321,26.782  c-1.53,1.043-2.372,2.835-2.196,4.677c0.353,3.746,3.252,4.276,10.195,7.285l-31.261,21.293c-3.312,2.257-2.814,7.27,0.84,8.857  l9.307,4.033l-25.077,17.084c-3.31,2.256-2.82,7.271,0.841,8.857l74.952,32.483c1.699,0.736,3.663,0.491,5.128-0.644  C442.104,323.982,442.837,322.144,442.552,320.314z"/>
<path style="fill:#84A316;" d="M388.13,296.98l25.077-17.084c-9.328-4.043-11.989-4.453-12.344-8.214  c-0.177-1.843,0.667-3.634,2.196-4.677l31.261-21.293l-7.159-3.103c-3.663-1.592-4.144-6.607-0.84-8.859l30.582-20.829  c-1.606-10.281-1.553-17.175-8.296-20.098c-3.514-1.523-7.659-0.947-11.374,1.584l-39.321,26.782  c-1.53,1.043-2.372,2.835-2.196,4.677c0.353,3.746,3.252,4.276,10.195,7.285l-31.261,21.293c-3.312,2.257-2.814,7.27,0.84,8.857  l9.307,4.033l-25.077,17.084c-3.31,2.256-2.82,7.271,0.841,8.857l27.138,11.762C385.124,302.84,385.383,298.852,388.13,296.98z"/>
<path d="M492.503,466.942H453.55c0-60.421-0.056-14.91,0-54.73c0.004-2.516-1.255-4.866-3.351-6.257l-33.857-22.482  c-2.504-1.664-5.761-1.669-8.273-0.015l-33.971,22.387c-2.104,1.388-3.372,3.74-3.372,6.261v54.837h-48.853l-3.019-38.733  c20.205-8.83,21.302-26.193-3.074-35.708c18.288-10.087,20.102-28.544-8.17-39.357c23.487-11.996,23.185-30.736,0.006-42.555  c28.772-13.251,28.255-33.885,1.844-46.674c34.101-14.356,32.221-36.219,7.704-49.495c48.372-17.088,47.11-42.698,21.123-58.451  C387.645,137.2,385.9,110.141,357.8,93.093c40.636-19.234,40.474-47.559-0.665-66.649c-3.758-1.745-8.215-0.111-9.958,3.645  c-1.743,3.757-0.11,8.215,3.646,9.957c14.1,6.544,22.188,13.793,22.188,19.891c0,14.018-37.124,26.228-50.642,29.935  c-71.387,19.57-183.553,19.732-255.671,2.927c-26.497-6.16-26.776-9.294-31.563-7.328c-47.415,19.498-47.612,50.824,4.121,70.495  C12.52,172.173,10.823,199.93,69.448,217.35c-20.027,13.355-20.468,35.258,19.754,49.311  c-22.882,13.633-23.513,38.427,30.374,51.816c-4.004,4.043-6.029,8.505-6.029,13.359c0,14.7,18.835,24.705,44.677,30.473  c-11.106,10.639-10.46,30.4,36.224,39.615c-1.702,2.429-2.591,5.074-2.618,7.937c-0.13,13.749,19.459,20.997,40.364,24.392  l36.5,32.685H135.898c-4.141,0-7.498,3.356-7.498,7.498s3.357,7.498,7.498,7.498c8.823,0,352.509,0,356.604,0  c2.48,0,4.499,2.018,4.499,4.499v5.776c0,2.481-2.018,4.499-4.499,4.499H19.666c-2.48,0-4.499-2.017-4.499-4.499v-5.776  c0-2.48,2.018-4.499,4.499-4.499h87.57c4.142,0,7.498-3.356,7.498-7.498s-3.356-7.498-7.498-7.498h-87.57  c-10.749,0-19.495,8.746-19.495,19.495v5.776c0,10.749,8.746,19.495,19.495,19.495h472.837c10.749,0,19.495-8.746,19.495-19.495  v-5.776C511.997,475.689,503.252,466.942,492.503,466.942z M15.167,119.911c0-5.929,8.583-13.128,23.108-19.482  c80.297,26.766,224.547,25.5,300.992,0c14.523,6.353,23.105,13.552,23.105,19.482c0,6.769-12.18,17.995-46.349,27.54  c-68.871,19.228-183.682,19.79-254.515-0.002l-0.002-0.001C27.345,137.903,15.167,126.679,15.167,119.911z M36.536,180.389  c0-4.196,6.188-11.002,23.354-17.832c71.974,19.305,185.201,19.405,257.759,0c17.166,6.83,23.355,13.636,23.355,17.832  c0,11.717-36.925,23.271-48.475,25.581c-61.447,14.832-155.793,14.302-214.724-1.852C49.296,196.304,36.536,186.569,36.536,180.389z   M71.251,237.324c0-2.54,4.437-8.335,20.767-14.408c61.999,12.607,145.847,11.269,202.057-1.864  c20.623,6.654,26.156,13.507,26.156,16.272c0,3.205-6.927,11.167-33.142,18.353c-50.282,13.785-132.533,13.75-182.695,0  C78.178,248.491,71.251,240.529,71.251,237.324z M89.627,286.806c0-1.835,4.086-7.781,22.406-13.828  c50.388,10.963,122.628,10.975,174.395-1.63c22.547,6.473,27.696,13.467,27.696,15.458c0,2.043-5.431,9.366-29.557,15.981  c-40.966,11.227-101.224,11.765-143.673,4.677C108.784,302.284,89.627,292.244,89.627,286.806z M128.54,331.839  c0-1.135,2.214-4.87,11.955-9.186c44.184,6.963,103.661,6.054,144.916-4.485c18.553,5.284,24.632,11.439,24.632,13.672  c0,7.414-42.202,27.548-128.111,19.289C144.57,346.461,128.54,336.161,128.54,331.839z M167.395,374.749  c0.166-0.835,3.139-4.618,14.495-8.514c31.551,3.683,70.324,2.702,100.458-4.379c24.882,4.605,31.488,11.416,31.779,12.809  c-1.056,5.394-29.918,17.363-78.909,16.351C192.695,390.166,168.421,379.565,167.395,374.749z M207.171,410.051  c0.916-0.917,3.448-2.879,9.748-5.002c23.334,2.056,49.642,1.18,72.889-3.689c19.343,2.978,26.914,7.777,28.782,9.73  c-7.034,7.629-45.461,14.051-81.229,8.871C236.362,419.721,212.839,416.379,207.171,410.051z M291.17,466.942l-33.799-30.266  c14.787,0.525,32.433-0.616,46.802-3.853l2.659,34.12H291.17V466.942z M407.336,466.942c0-17.629-0.443-17.86,1.4-19.695  c2.982-2.966,8.138-0.897,8.132,3.375l-0.014,16.32H407.336z M431.85,466.942l0.013-16.304c0.016-10.917-8.807-19.767-19.724-19.781  c-10.916-0.014-19.788,8.797-19.8,19.735v16.35h-6.617v-50.798l26.458-17.435l26.369,17.51c-0.004,2.882,0.006,47.842,0.006,50.723  L431.85,466.942L431.85,466.942z"/>
<path d="M260.254,72.857c4.034-1.189,16.31-4.806,16.328-14.587c0.016-8.43-8.606-14.445-29.759-20.764  c-3.97-1.186-8.145,1.071-9.33,5.039s1.071,8.145,5.039,9.33c8.095,2.417,12.918,4.427,15.756,5.872  C217.65,71.865,74.437,63.023,87.188,38.528c1.436-2.758,9.514-12.278,53.206-18.968c23.83-3.648,46.614-4.611,48.519-4.687  c51.871,0.011,101.913,5.921,137.32,16.221c3.97,1.16,8.137-1.129,9.293-5.105c1.157-3.977-1.129-8.138-5.105-9.293  C236.483-10.626,91.674-2.567,73.887,31.605c-2.463,4.733-4.126,12.344,1.949,21.72C95.702,83.984,224.076,83.516,260.254,72.857z"/>
<path d="M137.909,407.467c-1.771-4.259-6.396-4.681-8.63-1.944c-2.233,2.735-7.559,0.472-9.773,5.028  c-2.218,4.561,5.264,7.311,5.264,7.311C132.314,421.736,139.68,411.726,137.909,407.467z"/>
<path d="M169.947,448.486c12.185-2.048,12.084-18.657,6.309-21.724c-5.774-3.065-11.547,0.26-11.773,4.979  c-0.229,4.719-8.422,6.662-7.045,13.297C158.812,451.674,169.947,448.486,169.947,448.486z"/>
<path d="M391.507,233.89l-21.078,14.357c-3.792,2.584-5.875,7.024-5.439,11.577c0.327,3.47,2.073,6.597,4.744,8.699l-14.235,9.698  c-3.789,2.581-5.873,7.018-5.44,11.583c0.435,4.562,3.316,8.527,7.521,10.35l31.013,13.44l-8.065,18.61  c-2.144,4.951,1.497,10.481,6.876,10.481c2.898,0,5.657-1.69,6.884-4.519l8.065-18.61l30.18,13.079  c4.26,1.845,9.117,1.18,12.696-1.592c3.625-2.803,5.439-7.357,4.732-11.887v-0.003l-2.656-17.012  c5.513,0.849,11.131-2.082,13.45-7.438c1.857-4.302,1.223-4.684-3.064-32.13c7.915-0.09,13.764-7.354,12.21-15.058l-7.26-46.467  c-2.3-14.77-17.27-21.259-29.625-12.842l-39.323,26.784C387.346,219.316,386.339,228.256,391.507,233.89z M406.72,241.672  c21.047,9.122,20.182,8.97,22.245,8.97c2.897,0,5.657-1.69,6.884-4.519c1.647-3.8-0.099-8.215-3.898-9.861  c-30.742-13.322-22.042-9.553-26.186-11.348l35.692-24.31c3.143-2.139,5.75-1.192,6.366,2.759l6.665,42.666l-3.126-1.356  c-5.426-2.347-11.3,2.218-10.392,8.036l5.16,33.033c-4.783-2.072-8.643-4.59-12.848-1.339c-2.161,1.673-3.242,4.388-2.82,7.088  l4.005,25.641l-66.894-28.991l18.035-12.287l29.58,12.82c3.802,1.647,8.215-0.101,9.861-3.898c1.647-3.8-0.099-8.215-3.898-9.861  c-18.295-7.929-22.483-9.745-38.647-16.748L406.72,241.672z"/>
<path d="M428.154,355.853c-2.003-2.244-5.155-3.074-8.005-2.108l-57.022,19.354c-3.922,1.332-6.022,5.589-4.691,9.51  c1.331,3.922,5.592,6.015,9.51,4.691l52.323-17.759l36.785,41.231c2.759,3.092,7.499,3.358,10.587,0.604  c3.09-2.757,3.359-7.497,0.603-10.587L428.154,355.853z"/>
<g>
</g>
<g>
</g>
<g>
</g>
<g>
</g>
<g>
</g>
<g>
</g>
<g>
</g>
<g>
</g>
<g>
</g>
<g>
</g>
<g>
</g>
<g>
</g>
<g>
</g>
<g>
</g>
<g>
</g>
</svg>
