<?xml version="1.0" standalone="no"?>
<!DOCTYPE svg PUBLIC "-//W3C//DTD SVG 20010904//EN"
 "http://www.w3.org/TR/2001/REC-SVG-20010904/DTD/svg10.dtd">
<svg version="1.0" xmlns="http://www.w3.org/2000/svg"
 width="363.000000pt" height="331.000000pt" viewBox="0 0 363.000000 331.000000"
 preserveAspectRatio="xMidYMid meet">

<g transform="translate(0.000000,331.000000) scale(0.100000,-0.100000)"
fill="#000000" stroke="none">
<path d="M1485 2689 c-143 -32 -263 -60 -266 -62 -3 -1 26 -209 66 -461 l71
-459 212 -163 213 -163 37 27 c20 15 118 88 218 163 l180 137 66 458 c36 253
65 460 64 461 -5 7 -549 123 -572 122 -16 0 -146 -27 -289 -60z m557 -51 c137
-30 238 -57 238 -63 0 -20 -119 -837 -122 -840 -2 -1 -86 -64 -187 -140 -169
-126 -186 -137 -205 -125 -12 7 -95 69 -186 138 -91 69 -166 126 -168 127 -3
3 -133 847 -130 850 9 6 468 104 492 104 16 1 136 -22 268 -51z"/>
<path d="M1344 2495 c3 -16 33 -187 66 -380 68 -394 51 -351 174 -435 l61 -41
-45 38 c-24 21 -60 52 -78 68 l-34 31 -38 315 -38 315 -37 59 c-29 49 -35 54
-31 30z"/>
<path d="M2480 993 l0 -76 -23 21 c-49 46 -122 37 -157 -20 -38 -63 -21 -211
28 -237 39 -21 97 -13 126 15 l26 27 0 -27 c0 -23 4 -26 35 -26 l35 0 0 200 0
200 -35 0 -35 0 0 -77z m-34 -81 c53 -35 40 -180 -17 -195 -48 -13 -79 29 -79
104 0 62 24 99 65 99 11 0 25 -4 31 -8z"/>
<path d="M2680 1045 c0 -22 4 -25 35 -25 31 0 35 3 35 25 0 22 -4 25 -35 25
-31 0 -35 -3 -35 -25z"/>
<path d="M921 1048 c-84 -24 -121 -79 -121 -183 0 -82 17 -124 66 -161 35 -27
44 -29 123 -29 73 0 93 4 131 25 l45 25 3 73 3 72 -81 0 c-79 0 -80 0 -80 -25
0 -23 4 -25 45 -25 43 0 45 -1 45 -30 0 -40 -34 -61 -99 -62 -62 0 -97 20
-117 67 -17 41 -18 76 -3 128 23 82 142 105 199 37 13 -15 20 -16 49 -6 l34
12 -32 36 c-45 52 -128 70 -210 46z"/>
<path d="M1733 959 c-29 -8 -63 -42 -63 -60 0 -4 14 -10 31 -14 25 -6 34 -3
46 15 11 15 23 20 46 18 28 -3 32 -7 35 -34 3 -31 3 -31 -57 -38 -88 -10 -116
-39 -112 -113 3 -70 122 -87 168 -24 6 9 13 14 15 11 2 -3 8 -14 14 -25 14
-26 87 -29 92 -4 2 9 -5 19 -16 21 -17 5 -20 18 -24 103 -5 85 -8 100 -29 121
-28 28 -96 39 -146 23z m97 -177 c0 -37 -30 -64 -67 -60 -23 2 -29 9 -31 33
-4 36 18 55 65 55 30 0 33 -3 33 -28z"/>
<path d="M2138 958 c-8 -7 -20 -22 -26 -33 -11 -19 -11 -18 -12 8 0 24 -4 27
-35 27 l-35 0 0 -145 0 -145 35 0 35 0 0 94 c0 79 3 97 21 120 12 15 30 26 45
26 20 0 24 5 24 30 0 33 -23 41 -52 18z"/>
<path d="M1290 840 c0 -115 1 -122 25 -145 37 -38 98 -35 136 6 l29 31 0 -31
c0 -29 3 -31 35 -31 l35 0 0 145 0 145 -34 0 -34 0 -4 -99 c-4 -108 -19 -141
-64 -141 -45 0 -54 23 -54 136 l0 104 -35 0 -35 0 0 -120z"/>
<path d="M2680 815 l0 -145 35 0 35 0 0 145 0 145 -35 0 -35 0 0 -145z"/>
</g>
</svg>
