<?xml version="1.0" encoding="utf-8"?>
<!-- Generator: Adobe Illustrator 27.5.0, SVG Export Plug-In . SVG Version: 6.00 Build 0)  -->
<svg version="1.1" xmlns="http://www.w3.org/2000/svg" xmlns:xlink="http://www.w3.org/1999/xlink" x="0px" y="0px"
	 viewBox="0 0 500 500" style="enable-background:new 0 0 500 500;" xml:space="preserve">
<g id="Background_Complete">
	<g>
		<rect y="382.398" style="fill:#EBEBEB;" width="500" height="0.25"/>
		<rect x="416.779" y="398.494" style="fill:#EBEBEB;" width="33.122" height="0.25"/>
		<rect x="322.527" y="401.208" style="fill:#EBEBEB;" width="8.693" height="0.25"/>
		<rect x="396.586" y="389.208" style="fill:#EBEBEB;" width="19.192" height="0.25"/>
		<rect x="52.459" y="390.888" style="fill:#EBEBEB;" width="43.193" height="0.25"/>
		<rect x="104.556" y="390.888" style="fill:#EBEBEB;" width="6.333" height="0.25"/>
		<rect x="131.471" y="395.111" style="fill:#EBEBEB;" width="93.676" height="0.25"/>
		<path style="fill:#EBEBEB;" d="M237.014,337.8H43.915c-3.147,0-5.708-2.561-5.708-5.708V60.66c0-3.147,2.561-5.708,5.708-5.708
			h193.099c3.146,0,5.707,2.561,5.707,5.708v271.432C242.721,335.239,240.16,337.8,237.014,337.8z M43.915,55.203
			c-3.01,0-5.458,2.448-5.458,5.458v271.432c0,3.01,2.448,5.458,5.458,5.458h193.099c3.009,0,5.457-2.448,5.457-5.458V60.66
			c0-3.009-2.448-5.458-5.457-5.458H43.915z"/>
		<path style="fill:#EBEBEB;" d="M453.31,337.8H260.212c-3.147,0-5.707-2.561-5.707-5.708V60.66c0-3.147,2.561-5.708,5.707-5.708
			H453.31c3.148,0,5.708,2.561,5.708,5.708v271.432C459.019,335.239,456.458,337.8,453.31,337.8z M260.212,55.203
			c-3.009,0-5.457,2.448-5.457,5.458v271.432c0,3.01,2.448,5.458,5.457,5.458H453.31c3.01,0,5.458-2.448,5.458-5.458V60.66
			c0-3.009-2.448-5.458-5.458-5.458H260.212z"/>
	</g>
	<g>
		<g>
			<g>
				<rect x="220.011" y="82.362" style="fill:#EBEBEB;" width="134.515" height="300.036"/>
				<path style="fill:#F5F5F5;" d="M341.013,206.422H233.525c-2.687,0-4.873-2.187-4.873-4.873v-97.785
					c0-2.687,2.187-4.872,4.873-4.872h107.487c2.686,0,4.872,2.186,4.872,4.872v97.785
					C345.885,204.235,343.699,206.422,341.013,206.422z M233.525,99.937c-2.111,0-3.828,1.717-3.828,3.827v97.785
					c0,2.111,1.717,3.828,3.828,3.828h107.487c2.11,0,3.827-1.717,3.827-3.828v-97.785c0-2.11-1.717-3.827-3.827-3.827H233.525z"/>
				<path style="fill:#F5F5F5;" d="M341.013,373.457H233.525c-2.687,0-4.873-2.185-4.873-4.872V218.948
					c0-2.686,2.187-4.872,4.873-4.872h107.487c2.686,0,4.872,2.186,4.872,4.872v149.637
					C345.885,371.272,343.699,373.457,341.013,373.457z M233.525,215.121c-2.111,0-3.828,1.717-3.828,3.827v149.637
					c0,2.11,1.717,3.827,3.828,3.827h107.487c2.11,0,3.827-1.717,3.827-3.827V218.948c0-2.11-1.717-3.827-3.827-3.827H233.525z"/>
				
					<rect x="354.526" y="82.362" transform="matrix(-1 -1.224647e-16 1.224647e-16 -1 712.7643 464.7606)" style="fill:#E0E0E0;" width="3.712" height="300.036"/>
				<path style="fill:#E0E0E0;" d="M296.18,134.561c0,1.73,1.402,3.132,3.132,3.132c1.73,0,3.132-1.402,3.132-3.132
					c0-1.73-1.402-3.132-3.132-3.132C297.582,131.429,296.18,132.831,296.18,134.561z"/>
				<g>
					<path style="opacity:0.4;fill:#E0E0E0;" d="M337.533,238.784c0,3.267,2.649,5.916,5.916,5.916c3.267,0,5.916-2.649,5.916-5.916
						c0-3.267-2.649-5.916-5.916-5.916C340.181,232.868,337.533,235.517,337.533,238.784z"/>
					<path style="fill:#E0E0E0;" d="M334.169,235.304c0,3.267,2.649,5.916,5.916,5.916c3.267,0,5.916-2.649,5.916-5.916
						c0-3.267-2.649-5.916-5.916-5.916C336.817,229.388,334.169,232.037,334.169,235.304z"/>
				</g>
			</g>
		</g>
		<g>
			<g>
				<g>
					<g>
						<path style="fill:#E6E6E6;" d="M427.486,352.222h-7.338c-2.113,0-3.826,1.713-3.826,3.826v26.35h14.99v-26.35
							C431.312,353.935,429.599,352.222,427.486,352.222z"/>
						<path style="fill:#E6E6E6;" d="M426.195,379.608h-4.757V90.8c0-1.313,1.065-2.378,2.378-2.378l0,0
							c1.314,0,2.378,1.065,2.378,2.378V379.608z"/>
						<circle style="fill:#E6E6E6;" cx="423.817" cy="88.422" r="10.866"/>
						<path style="fill:#E6E6E6;" d="M424.68,119.292c-0.856,0-1.549-0.694-1.549-1.549s0.694-1.549,1.549-1.549
							c3.061,0,5.551-2.49,5.551-5.551c0-0.856,0.694-1.549,1.549-1.549s1.549,0.694,1.549,1.549
							C433.33,115.411,429.45,119.292,424.68,119.292z"/>
						<path style="fill:#E6E6E6;" d="M422.141,144.961c0.856,0,1.549-0.694,1.549-1.549c0-0.856-0.694-1.549-1.549-1.549
							c-3.061,0-5.551-2.49-5.551-5.551c0-0.856-0.694-1.549-1.549-1.549c-0.855,0-1.549,0.694-1.549,1.549
							C413.491,141.08,417.371,144.961,422.141,144.961z"/>
						<path style="fill:#E6E6E6;" d="M424.68,176.181c-0.856,0-1.549-0.694-1.549-1.549c0-0.856,0.694-1.549,1.549-1.549
							c3.061,0,5.551-2.49,5.551-5.551c0-0.856,0.694-1.549,1.549-1.549s1.549,0.694,1.549,1.549
							C433.33,172.3,429.45,176.181,424.68,176.181z"/>
						<path style="fill:#E6E6E6;" d="M422.141,201.85c0.856,0,1.549-0.694,1.549-1.549c0-0.856-0.694-1.549-1.549-1.549
							c-3.061,0-5.551-2.49-5.551-5.551c0-0.856-0.694-1.549-1.549-1.549c-0.855,0-1.549,0.694-1.549,1.549
							C413.491,197.969,417.371,201.85,422.141,201.85z"/>
					</g>
				</g>
			</g>
			<path style="fill:#F0F0F0;" d="M410.273,136.048c1.345-5.082,8.031-2.745,8.067-0.001c0.033,2.471,5.553,75.503,6.651,90.015
				c0.124,1.633-0.189,3.269-0.906,4.742l-5.682,11.667l5.163,53.344l-3.992,4.618c-4.345,5.027-12.516,3.366-14.554-2.958
				l-1.549-4.809l0.824-63.717l-4.309-9.714c-0.653-1.472-0.911-3.082-0.746-4.684C400.432,202.954,405.703,153.31,410.273,136.048z
				"/>
			<polygon style="fill:#E6E6E6;" points="415.555,177.445 418.402,242.471 421.389,236.337 			"/>
			<polygon style="fill:#E6E6E6;" points="404.295,228.949 404.999,207.445 401.573,222.813 			"/>
		</g>
		<g>
			<polygon style="fill:#EBEBEB;" points="134.098,214.092 180.661,214.092 174.889,261.809 128.326,261.809 			"/>
			<polygon style="fill:#FAFAFA;" points="140.764,220.347 172.482,220.347 168.223,255.554 136.505,255.554 			"/>
			<polygon style="fill:#F0F0F0;" points="149.003,230.91 161.687,230.91 159.984,244.991 147.299,244.991 			"/>
		</g>
		<g>
			<polygon style="fill:#EBEBEB;" points="92.816,226.255 127.51,226.255 123.209,261.809 88.515,261.809 			"/>
			<polygon style="fill:#FAFAFA;" points="97.783,230.916 121.416,230.916 118.243,257.148 94.61,257.148 			"/>
			<polygon style="fill:#F0F0F0;" points="103.921,238.786 113.373,238.786 112.104,249.278 102.652,249.278 			"/>
		</g>
		<g>
			
				<rect x="89.175" y="87.092" transform="matrix(-1 -1.224647e-16 1.224647e-16 -1 250.7586 265.2046)" style="fill:#F0F0F0;" width="72.409" height="91.02"/>
			
				<rect x="73.19" y="87.092" transform="matrix(-1 -1.224647e-16 1.224647e-16 -1 231.9996 265.2046)" style="fill:#F5F5F5;" width="85.62" height="91.02"/>
			
				<rect x="77.663" y="96.965" transform="matrix(6.123234e-17 -1 1 6.123234e-17 -16.6024 248.6022)" style="fill:#FFFFFF;" width="76.674" height="71.274"/>
			<circle style="fill:#F0F0F0;" cx="116" cy="132.602" r="16.091"/>
		</g>
		<g>
			<g>
				
					<rect x="178.467" y="261.809" transform="matrix(-1 -1.224647e-16 1.224647e-16 -1 384.3736 644.2074)" style="fill:#E6E6E6;" width="27.441" height="120.589"/>
				<rect x="50.992" y="261.809" style="fill:#F5F5F5;" width="127.475" height="120.589"/>
				
					<rect x="56.963" y="265.951" transform="matrix(-1.836970e-16 1 -1 -1.836970e-16 439.3609 209.9027)" style="fill:#E6E6E6;" width="115.533" height="117.362"/>
				
					<rect x="71.45" y="280.438" transform="matrix(-1.836970e-16 1 -1 -1.836970e-16 453.8481 195.4155)" style="fill:#E0E0E0;" width="115.533" height="88.388"/>
				
					<rect x="98.914" y="219.705" transform="matrix(-1.836970e-16 1 -1 -1.836970e-16 394.7974 166.3962)" style="fill:#F5F5F5;" width="30.574" height="121.783"/>
				<path style="fill:#E6E6E6;" d="M164.093,292.629H64.308c-2.285,0-4.145-1.859-4.145-4.145v-15.775
					c0-2.285,1.859-4.145,4.145-4.145h99.785c2.286,0,4.145,1.859,4.145,4.145v15.775
					C168.238,290.77,166.379,292.629,164.093,292.629z M64.308,270.086c-1.446,0-2.623,1.177-2.623,2.623v15.775
					c0,1.446,1.177,2.623,2.623,2.623h99.785c1.447,0,2.624-1.177,2.624-2.623v-15.775c0-1.446-1.177-2.623-2.624-2.623H64.308z"/>
				<path style="fill:#E6E6E6;" d="M110.266,280.635c0,2.173,1.762,3.935,3.935,3.935s3.935-1.762,3.935-3.935
					c0-2.173-1.762-3.935-3.935-3.935S110.266,278.462,110.266,280.635z"/>
			</g>
		</g>
	</g>
</g>
<g id="Background_Simple" style="display:none;">
	<g style="display:inline;">
		<path style="fill:#407BFF;" d="M236.778,334.59c-52.116,8.414-88.221-50.135-103.793-83.464
			c-7.841-16.783-13.695-30.234-32.59-42.5c-17.536-11.384-32.623-14.802-40.001-32.692c-6.786-16.452,7.214-43.356,25.651-53.187
			c22.62-12.062,42.97-5.19,65.362-10.995c32.264-8.364,37.006-83.441,97.762-47.994c15.844,9.244,17.804,24.352,24.758,36.934
			c10.344,18.715,24.989,25.712,48.567,35.963c21.503,9.35,44.113,20.435,52.47,38.257c8.125,17.327-1.772,34.208,8.604,51.62
			c16.553,27.779,63.169,79.161-6.606,79.529c-24.773,0.131-59.214-12.657-80.82-7.029
			C273.275,304.988,268.339,329.495,236.778,334.59z"/>
		<path style="opacity:0.9;fill:#FFFFFF;" d="M236.778,334.59c-52.116,8.414-88.221-50.135-103.793-83.464
			c-7.841-16.783-13.695-30.234-32.59-42.5c-17.536-11.384-32.623-14.802-40.001-32.692c-6.786-16.452,7.214-43.356,25.651-53.187
			c22.62-12.062,42.97-5.19,65.362-10.995c32.264-8.364,37.006-83.441,97.762-47.994c15.844,9.244,17.804,24.352,24.758,36.934
			c10.344,18.715,24.989,25.712,48.567,35.963c21.503,9.35,44.113,20.435,52.47,38.257c8.125,17.327-1.772,34.208,8.604,51.62
			c16.553,27.779,63.169,79.161-6.606,79.529c-24.773,0.131-59.214-12.657-80.82-7.029
			C273.275,304.988,268.339,329.495,236.778,334.59z"/>
	</g>
</g>
<g id="Shadow_1_">
	<ellipse id="_x3C_Path_x3E__309_" style="fill:#F5F5F5;" cx="250" cy="416.238" rx="193.889" ry="11.323"/>
</g>
<g id="Smartphone">
	<g>
		<rect x="284.263" y="134.996" style="fill:#407BFF;" width="26.667" height="1"/>
		<rect x="317.597" y="134.996" style="fill:#407BFF;" width="11" height="1"/>
		<path style="fill:#407BFF;" d="M397.61,151.095l-18.972,252.547c-0.146,1.942-0.725,3.779-1.646,5.428
			c-0.001,0.01-0.012,0.021-0.023,0.031c-2.354,4.22-6.898,7.139-11.874,7.139h-122.83c-6.929,0-12.172-5.669-11.652-12.598
			l18.972-252.547c0.521-6.929,6.615-12.598,13.544-12.598h122.83c4.976,0,9.082,2.919,10.802,7.139
			c0.01,0.01,0.019,0.021,0.019,0.032C397.453,147.315,397.756,149.152,397.61,151.095z"/>
		<polygon style="opacity:0.05;fill:#FFFFFF;" points="370.047,138.497 333.713,138.497 277.227,416.24 313.56,416.24 		"/>
		<polygon style="opacity:0.05;fill:#FFFFFF;" points="325.507,138.497 315.289,138.497 258.802,416.24 269.02,416.24 		"/>
		<path style="opacity:0.2;fill:#263238;" d="M397.61,151.095l-18.972,252.547c-0.146,1.942-0.725,3.779-1.646,5.428
			c-0.001,0.01-0.012,0.021-0.023,0.031c-2.025,2.499-5.083,0.588-4.646-5.239l19.005-252.988c0.438-5.827,3.783-7.737,5.433-5.239
			c0.01,0.01,0.019,0.021,0.019,0.032C397.453,147.315,397.756,149.152,397.61,151.095z"/>
		<g>
			<g>
				<path style="fill:#FFFFFF;" d="M311.595,269.654c-5.39,0-10.31-2.103-13.854-5.925c-3.559-3.836-5.294-8.928-4.888-14.337
					l1.452-19.338c0.029-0.393,0.386-0.698,0.765-0.657c0.393,0.029,0.688,0.371,0.657,0.765l-1.452,19.338
					c-0.376,5.009,1.226,9.718,4.512,13.259c3.271,3.527,7.82,5.47,12.809,5.47c10.386,0,19.47-8.45,20.25-18.836l1.453-19.338
					c0.029-0.393,0.387-0.698,0.765-0.657c0.393,0.029,0.688,0.371,0.657,0.765l-1.453,19.338
					C332.432,260.613,322.71,269.654,311.595,269.654z"/>
				<path style="fill:#FFFFFF;" d="M312.131,261.809L312.131,261.809c-6.8,0-11.945-5.563-11.435-12.363l1.453-19.337
					c0.511-6.8,6.492-12.363,13.292-12.363l0,0c6.8,0,11.945,5.563,11.435,12.363l-1.453,19.337
					C324.912,256.246,318.931,261.809,312.131,261.809z"/>
				<path style="fill:#FFFFFF;" d="M310.876,279.244c-0.019,0-0.036,0-0.055-0.002c-0.393-0.029-0.688-0.371-0.657-0.765l0.72-9.59
					c0.028-0.393,0.375-0.701,0.765-0.657c0.393,0.029,0.688,0.371,0.657,0.765l-0.72,9.59
					C311.559,278.959,311.245,279.244,310.876,279.244z"/>
				<path style="fill:#FFFFFF;" d="M315.154,279.958h-8.56c-0.788,0-1.427-0.639-1.427-1.427c0-0.788,0.639-1.427,1.427-1.427h8.56
					c0.788,0,1.427,0.639,1.427,1.427C316.581,279.319,315.942,279.958,315.154,279.958z"/>
			</g>
			<path style="opacity:0.2;fill:#FFFFFF;" d="M310.102,296.065c-13.094,0-25.058-5.122-33.687-14.423
				c-8.657-9.332-12.883-21.705-11.896-34.839c1.996-26.564,25.239-48.176,51.813-48.176c13.095,0,25.059,5.122,33.688,14.424
				c8.658,9.333,12.883,21.705,11.896,34.838C359.919,274.453,336.676,296.065,310.102,296.065z M316.332,199.127
				c-26.318,0-49.339,21.404-51.315,47.713c-0.975,12.994,3.203,25.232,11.766,34.462c8.533,9.197,20.366,14.263,33.319,14.263
				c26.318,0,49.339-21.404,51.315-47.713c0.976-12.993-3.202-25.231-11.765-34.461C341.12,204.192,329.286,199.127,316.332,199.127
				z"/>
			
				<ellipse transform="matrix(0.7202 -0.6937 0.6937 0.7202 -83.9646 286.4787)" style="opacity:0.2;fill:#FFFFFF;" cx="313.217" cy="247.346" rx="43.055" ry="39.94"/>
			<path style="fill:#FFFFFF;" d="M310.334,286.08c-10.331,0-19.749-4.019-26.519-11.316c-6.797-7.326-10.11-17.073-9.331-27.444
				c1.603-21.344,20.271-38.708,41.616-38.708c10.331,0,19.749,4.019,26.519,11.316c6.797,7.326,10.11,17.073,9.331,27.444l0,0
				C350.348,268.716,331.679,286.08,310.334,286.08z M316.101,209.324c-20.979,0-39.329,17.068-40.905,38.048
				c-0.765,10.172,2.482,19.728,9.143,26.906c6.634,7.15,15.866,11.089,25.996,11.089c20.979,0,39.329-17.068,40.905-38.048l0,0
				c0.765-10.172-2.482-19.728-9.143-26.906C335.463,213.263,326.23,209.324,316.101,209.324z"/>
		</g>
		<g>
			<path style="fill:#FFFFFF;" d="M297.543,342.248c-5.346,0-10.251-5.309-14.997-10.446c-2.074-2.244-4.216-4.563-6.351-6.388
				c-3.8,2.763-9.298,5.701-14.277,1.132c-0.492-0.452-0.753-1.036-0.733-1.646c0.021-0.658,0.361-1.287,0.958-1.77l0,0
				c5.638-4.549,10.693-1.619,14.086,1.15c2.419-1.83,4.919-4.158,7.339-6.412c5.808-5.409,11.831-11.012,17.396-10.382
				c2.698,0.3,5.049,1.967,7.188,5.096c9.169,13.416,18.246,10.869,27.021,8.405c6.587-1.851,12.81-3.599,17.928,2.412
				c0.75,0.881,0.67,2.055-0.199,2.921c-5.993,5.976-11.949,4.227-18.252,2.379c-8.018-2.353-17.107-5.019-28.328,8.439
				c-2.803,3.361-5.607,5.031-8.573,5.106C297.679,342.247,297.61,342.248,297.543,342.248z M276.927,324.869
				c2.124,1.837,4.231,4.117,6.273,6.327c4.615,4.996,9.388,10.16,14.344,10.16c0.061,0,0.12,0,0.18-0.002
				c2.695-0.068,5.283-1.634,7.913-4.786c11.594-13.906,20.98-11.152,29.263-8.724c6.306,1.849,11.752,3.448,17.372-2.154
				c0.536-0.535,0.594-1.191,0.15-1.712c-4.748-5.576-10.43-3.98-17.009-2.133c-8.656,2.43-18.467,5.186-27.998-8.761
				c-1.982-2.901-4.125-4.442-6.55-4.712c-5.178-0.579-11.03,4.877-16.69,10.148C281.791,320.74,279.332,323.031,276.927,324.869z
				 M262.702,323.824c-0.392,0.317-0.615,0.709-0.627,1.105c-0.012,0.351,0.143,0.684,0.444,0.961
				c3.467,3.18,7.482,2.857,12.966-1.063C270.62,320.938,266.661,320.631,262.702,323.824L262.702,323.824z"/>
			<rect x="251.411" y="324.581" style="opacity:0.2;fill:#FFFFFF;" width="111.969" height="0.525"/>
		</g>
		<path style="fill:#FFFFFF;" d="M339.02,154.344h-37.593c-1.076,0-2.061-0.423-2.772-1.189c-0.713-0.77-1.061-1.788-0.98-2.867
			c0.167-2.216,2.104-4.018,4.32-4.018h37.593c1.076,0,2.061,0.423,2.771,1.189c0.714,0.77,1.063,1.788,0.981,2.868
			C343.174,152.541,341.236,154.344,339.02,154.344z M301.994,146.794c-1.947,0-3.65,1.585-3.797,3.532
			c-0.07,0.933,0.229,1.809,0.843,2.471c0.61,0.659,1.458,1.021,2.387,1.021h37.593c1.948,0,3.651-1.584,3.797-3.531
			c0.07-0.933-0.229-1.811-0.843-2.472c-0.61-0.659-1.458-1.021-2.387-1.021H301.994z"/>
		<path style="fill:#FFFFFF;" d="M301.16,408.107c-1.973,0-3.772-0.768-5.066-2.163c-1.299-1.4-1.933-3.263-1.783-5.242
			c0.305-4.063,3.858-7.367,7.92-7.367c1.973,0,3.772,0.768,5.065,2.163c1.3,1.4,1.934,3.263,1.785,5.243l0,0
			C308.775,404.803,305.223,408.107,301.16,408.107z M302.23,393.86c-3.794,0-7.112,3.087-7.396,6.881
			c-0.138,1.833,0.446,3.554,1.644,4.846c1.193,1.287,2.857,1.995,4.682,1.995c3.794,0,7.112-3.086,7.397-6.88l0,0
			c0.138-1.834-0.447-3.555-1.646-4.847C305.718,394.568,304.056,393.86,302.23,393.86z M308.819,400.722h0.007H308.819z"/>
	</g>
</g>
<g id="Character_1_">
	<g>
		<g>
			<g>
				<g>
					<g>
						<path style="fill:#B55B52;" d="M131.895,175.779l0.507,0.39l0.608,0.45l1.264,0.917c0.865,0.607,1.75,1.201,2.654,1.777
							c1.808,1.151,3.664,2.262,5.563,3.3c3.79,2.098,7.739,3.948,11.806,5.525l1.529,0.584l0.646,0.248l0.157,0.077
							c0.064,0.036,0.015,0.047-0.038,0.101c-0.054,0.053-0.078,0.11,0.002,0.097c0.157-0.01,0.612-0.412,1.024-1.049
							c0.431-0.631,0.842-1.46,1.202-2.355c0.733-1.807,1.3-3.878,1.786-5.994c0.493-2.106,0.885-4.353,1.223-6.475l5.227-0.044
							c0.556,4.904,0.664,9.648-0.458,14.867c-0.312,1.306-0.71,2.645-1.356,4.052c-0.665,1.387-1.576,2.916-3.277,4.285
							c-0.845,0.67-1.914,1.263-3.089,1.589c-1.17,0.337-2.39,0.392-3.467,0.277c-0.542-0.056-1.055-0.153-1.531-0.277l-0.343-0.089
							l-0.218-0.064l-0.437-0.128l-1.747-0.512c-4.653-1.398-9.183-3.223-13.542-5.424c-2.174-1.112-4.322-2.287-6.391-3.626
							c-1.037-0.665-2.063-1.356-3.082-2.075c-0.507-0.373-1.02-0.725-1.521-1.127l-0.76-0.605l-0.835-0.698L131.895,175.779z"/>
						<path style="opacity:0.2;" d="M131.895,175.779l0.507,0.39l0.608,0.45l1.264,0.917c0.865,0.607,1.75,1.201,2.654,1.777
							c1.808,1.151,3.664,2.262,5.563,3.3c3.79,2.098,7.739,3.948,11.806,5.525l1.529,0.584l0.646,0.248l0.157,0.077
							c0.064,0.036,0.015,0.047-0.038,0.101c-0.054,0.053-0.078,0.11,0.002,0.097c0.157-0.01,0.612-0.412,1.024-1.049
							c0.431-0.631,0.842-1.46,1.202-2.355c0.733-1.807,1.3-3.878,1.786-5.994c0.493-2.106,0.885-4.353,1.223-6.475l5.227-0.044
							c0.556,4.904,0.664,9.648-0.458,14.867c-0.312,1.306-0.71,2.645-1.356,4.052c-0.665,1.387-1.576,2.916-3.277,4.285
							c-0.845,0.67-1.914,1.263-3.089,1.589c-1.17,0.337-2.39,0.392-3.467,0.277c-0.542-0.056-1.055-0.153-1.531-0.277l-0.343-0.089
							l-0.218-0.064l-0.437-0.128l-1.747-0.512c-4.653-1.398-9.183-3.223-13.542-5.424c-2.174-1.112-4.322-2.287-6.391-3.626
							c-1.037-0.665-2.063-1.356-3.082-2.075c-0.507-0.373-1.02-0.725-1.521-1.127l-0.76-0.605l-0.835-0.698L131.895,175.779z"/>
					</g>
					<g>
						<path style="fill:#B55B52;" d="M168.397,162.696l-6.962-1.165l-0.408,5.509c0,0-2.17,6.74,2.597,9.543l3.23-0.769l3.017-7.33
							L168.397,162.696z"/>
						<path style="opacity:0.2;" d="M168.397,162.696l-6.962-1.165l-0.408,5.509c0,0-2.17,6.74,2.597,9.543l3.23-0.769l3.017-7.33
							L168.397,162.696z"/>
					</g>
					<path style="fill:#407BFF;" d="M126.457,171.726c7.57,0.208,13.837,6.554,17.514,10.488l-4.266,17.306
						c0,0-14.746-8.641-17.089-13.37C119.056,178.963,123.594,171.647,126.457,171.726z"/>
				</g>
				<g>
					<path style="fill:#407BFF;" d="M123.471,404.018c-1.025,0.202-2.167,0.246-2.984,0.244c-0.095,0-0.179-0.061-0.21-0.151
						c-0.032-0.09-0.001-0.191,0.073-0.25c0.385-0.303,3.792-2.949,5.027-2.533c0.24,0.08,0.402,0.259,0.469,0.517
						c0.113,0.434,0.038,0.823-0.22,1.156C125.221,403.524,124.394,403.835,123.471,404.018z M121.164,403.803
						c2.117-0.064,3.628-0.456,4.109-1.077c0.17-0.22,0.215-0.47,0.139-0.766c-0.029-0.112-0.082-0.174-0.177-0.206
						C124.554,401.53,122.569,402.763,121.164,403.803z"/>
					<path style="fill:#407BFF;" d="M120.531,404.257c-0.046,0.009-0.094,0.004-0.137-0.017c-0.072-0.034-0.121-0.104-0.128-0.184
						c-0.014-0.17-0.314-4.061,1.767-4.472c0.059-0.012,0.12-0.021,0.183-0.026c0.614-0.058,0.845,0.213,0.932,0.451
						c0.37,1.019-1.494,3.481-2.53,4.212C120.591,404.239,120.561,404.251,120.531,404.257z M122.124,400.025
						c-1.341,0.265-1.446,2.58-1.43,3.559c1.026-0.921,2.252-2.808,2.03-3.419c-0.018-0.048-0.072-0.196-0.471-0.159
						C122.21,400.01,122.167,400.016,122.124,400.025z"/>
					<polygon style="fill:#B55B52;" points="110.685,403.182 120.356,403.954 125.897,382.868 116.226,382.096 					"/>
					<path style="fill:#263238;" d="M120.941,402.531h-10.652c-0.388,0-0.711,0.269-0.777,0.648l-1.478,8.428
						c-0.153,0.874,0.573,1.702,1.467,1.686c3.716-0.064,5.512-0.282,10.197-0.282c2.882,0,6.671,0.299,10.651,0.299
						c3.892,0,4.315-3.935,2.669-4.292c-7.38-1.598-8.073-3.802-10.51-5.904C122.068,402.735,121.508,402.531,120.941,402.531z"/>
					<polygon style="opacity:0.2;" points="125.894,382.874 122.816,394.592 113.362,392.977 116.218,382.102 					"/>
					<path style="fill:#263238;" d="M138.714,231.954c0,0,20.969,66.692,13.921,93.206c-8.058,30.317-27.114,66.067-27.114,66.067
						l-13.343-1.765c0,0,13.987-38.739,20.461-68.63c7.058-32.586-30.991-61.169-14.6-91.888
						C128.192,230.171,138.714,231.954,138.714,231.954z"/>
					<polygon style="fill:#407BFF;" points="126.826,392.306 110.922,389.8 111.68,385.219 129.2,386.151 					"/>
				</g>
				<path style="fill:#263238;" d="M167.839,152.743c-0.199,0.734,0.029,1.447,0.51,1.592c0.481,0.145,1.033-0.332,1.233-1.066
					c0.199-0.734-0.029-1.447-0.51-1.592C168.591,151.531,168.039,152.009,167.839,152.743z"/>
				<path style="fill:#263238;" d="M168.848,151.653l1.907,0.025C170.755,151.678,169.473,152.782,168.848,151.653z"/>
				<path style="fill:#A02724;" d="M168.265,153.644c0,0,0.39,3.538,1.351,5.478c-1.218,0.611-2.758-0.301-2.758-0.301
					L168.265,153.644z"/>
				<path style="fill:#263238;" d="M170.161,148.145c-0.072-0.007-0.142-0.031-0.206-0.075c-1.668-1.128-3.202-0.562-3.266-0.538
					c-0.232,0.089-0.491-0.026-0.58-0.256c-0.089-0.231,0.023-0.489,0.253-0.58c0.082-0.031,2.023-0.771,4.096,0.63
					c0.205,0.139,0.26,0.418,0.12,0.623C170.483,148.091,170.32,148.161,170.161,148.145z"/>
				<path style="fill:#263238;" d="M145.383,133.686c2.533-9.67,22.29-2.123,25.923,5.499c5.965,12.514-18.285,21.472-15.65,41.194
					c-11.092,3.128-27.206,1.568-27.206,1.568S121.968,134.824,145.383,133.686z"/>
				<path style="fill:#B55B52;" d="M143.975,154.235c0.004,5.736-2.726,14.899-7.307,17.694c0,0,2.71,6.276,12.966,8.586
					c11.277,2.54,6.483-4.357,6.483-4.357c-5.868-2.849-4.816-7.357-2.906-11.383L143.975,154.235z"/>
				<path style="fill:#407BFF;" d="M163.81,178.236c-10.889-5.209-23.331-8.14-34.517-8.251c-4.959-0.049-8.907,4.147-8.649,9.099
					c1.369,26.287-1.217,36.381-3.257,50.39c7.422,0.971,23.165,3.041,38.391,5.045c6.281-26.802,11.058-40.051,12.471-47.406
					C168.945,183.491,167.137,179.827,163.81,178.236z"/>
				<path style="opacity:0.2;" d="M160.66,198.153c1.047,2.23,2.389,4.084,3.8,5.609c1.797-7.099,2.924-12.253,3.629-15.836
					C163.379,187.402,157.281,191.009,160.66,198.153z"/>
				<g>
					<path style="fill:#B55B52;" d="M164.621,181.585l0.519,0.509l0.639,0.597c0.434,0.404,0.881,0.816,1.344,1.213
						c0.921,0.802,1.886,1.58,2.879,2.324c1.969,1.513,4.047,2.908,6.18,4.217c2.14,1.301,4.368,2.456,6.637,3.534
						c1.159,0.478,2.285,1.051,3.468,1.477l1.76,0.688c0.08,0.036,0.088,0.035-0.177,0.021c-0.083-0.004-0.101,0.011-0.235,0.012
						c-0.122,0.005-0.245,0.023-0.363,0.055c-0.172,0.028-0.357,0.078-0.523,0.15c-0.178,0.069-0.418,0.171-0.601,0.299
						c-0.407,0.249-0.767,0.609-0.992,0.941c-0.221,0.31-0.336,0.617-0.389,0.779c-0.109,0.368-0.058,0.465-0.054,0.407
						c0.037-0.085,0.026-0.531-0.049-1.001c-0.151-0.976-0.463-2.151-0.837-3.323c-0.728-2.376-1.698-4.825-2.688-7.271
						c-2.028-4.881-4.237-9.834-6.461-14.71l4.493-2.671c3.263,4.499,6.267,9.088,8.998,13.973c1.371,2.443,2.658,4.943,3.824,7.66
						c0.567,1.374,1.106,2.786,1.533,4.465c0.204,0.858,0.402,1.764,0.421,3.037c0.004,0.62-0.031,1.4-0.35,2.413
						c-0.151,0.487-0.424,1.099-0.836,1.688c-0.232,0.312-0.456,0.602-0.758,0.882c-0.301,0.275-0.63,0.548-0.971,0.751
						c-0.336,0.2-0.72,0.397-1.058,0.519c-0.33,0.117-0.677,0.215-1.014,0.286c-0.287,0.048-0.578,0.083-0.87,0.105
						c-0.303,0.023-0.492,0.008-0.744,0.002c-0.945-0.043-1.598-0.221-2.168-0.377l-2.094-0.631
						c-1.408-0.395-2.767-0.93-4.143-1.424c-2.708-1.093-5.396-2.268-7.951-3.705c-2.567-1.412-5.042-2.997-7.407-4.757
						c-1.178-0.887-2.327-1.817-3.452-2.801c-0.564-0.49-1.12-0.994-1.672-1.524l-0.821-0.823c-0.289-0.297-0.517-0.536-0.895-0.957
						L164.621,181.585z"/>
					<path style="fill:#B55B52;" d="M179.835,173.016l1.268-7.824l-8.94,0.608c0,0-0.577,7.057,4.702,8.7L179.835,173.016z"/>
					<polygon style="fill:#B55B52;" points="178.227,161.691 171.305,160.343 172.163,165.8 181.103,165.191 					"/>
					<path style="fill:#407BFF;" d="M158.69,177.047c7.57,0.208,13.837,6.554,17.514,10.488l-8.115,15.302
						c0,0-10.898-6.637-13.24-11.365C151.289,184.284,155.828,176.969,158.69,177.047z"/>
				</g>
				<path style="fill:#B55B52;" d="M143.754,143.294c-1.896,9.184-2.895,13.025,0.414,19.031c4.977,9.034,16.683,9.697,21.287,1.347
					c4.144-7.516,6.549-21.273-1.327-27.531C156.369,129.975,145.65,134.11,143.754,143.294z"/>
				<path style="fill:#263238;" d="M160.683,152.361c5.6-1.39,10.622-7.931,6.826-13.682c-3.149-4.771-13.525-8.09-19.53-4.677
					c-6.004,3.413-26.015,35.856-10.049,40.498C149.503,177.865,154.082,174.896,160.683,152.361z"/>
				<path style="fill:#B55B52;" d="M158.152,149.682c-0.189,1.695,0.366,3.572,1.188,4.976c1.236,2.112,2.984,1.766,3.587,0.005
					c0.542-1.585,0.553-4.594-1.143-6.148C160.113,146.982,158.369,147.744,158.152,149.682z"/>
				<path style="opacity:0.2;" d="M144.904,254.319c-0.102-0.023-0.216-0.034-0.318-0.046c-1.49-0.341-2.89,0.603-4.084,3.151
					c-5.768,12.218,5.597,38.624,13.584,54.471C154.153,294.547,149.204,271.259,144.904,254.319z"/>
				<g>
					<path style="fill:#407BFF;" d="M164.45,403.939c-1.043-0.056-2.162-0.296-2.954-0.499c-0.092-0.024-0.159-0.103-0.167-0.198
						c-0.009-0.095,0.045-0.185,0.131-0.224c0.447-0.199,4.389-1.925,5.488-1.217c0.214,0.137,0.328,0.35,0.331,0.617
						c0.005,0.449-0.161,0.807-0.492,1.066C166.267,403.892,165.39,403.99,164.45,403.939z M162.264,403.162
						c2.069,0.459,3.63,0.452,4.246-0.032c0.218-0.171,0.322-0.403,0.319-0.708c-0.001-0.116-0.038-0.189-0.122-0.243
						C166.1,401.794,163.877,402.501,162.264,403.162z"/>
					<path style="fill:#407BFF;" d="M161.54,403.447c-0.047-0.003-0.093-0.02-0.129-0.05c-0.062-0.051-0.093-0.131-0.08-0.21
						c0.027-0.168,0.673-4.014,2.791-3.9c0.06,0.003,0.122,0.01,0.184,0.02c0.61,0.095,0.769,0.415,0.796,0.667
						c0.113,1.078-2.287,3.006-3.469,3.459C161.602,403.444,161.571,403.448,161.54,403.447z M164.105,399.736
						c-1.365-0.074-2.025,2.145-2.244,3.098c1.217-0.64,2.862-2.167,2.793-2.814c-0.006-0.051-0.022-0.208-0.419-0.27
						C164.192,399.743,164.149,399.738,164.105,399.736z"/>
					<polygon style="fill:#B55B52;" points="150.971,404.563 160.29,404.535 164.696,382.182 155.376,382.209 					"/>
					<path style="fill:#263238;" d="M161.317,402.531h-10.652c-0.388,0-0.709,0.269-0.773,0.648l-1.43,8.428
						c-0.148,0.874,0.582,1.702,1.477,1.686c3.715-0.064,5.511-0.282,10.195-0.282c2.882,0,8.835,0.299,12.815,0.299
						c3.892,0,4.293-3.935,2.645-4.292c-7.389-1.598-10.257-3.802-12.707-5.904C162.445,402.735,161.884,402.531,161.317,402.531z"
						/>
					<polygon style="opacity:0.2;" points="164.693,382.188 162.246,394.611 153.099,393.745 155.37,382.216 					"/>
					<path style="fill:#263238;" d="M155.209,234.551c0,0,32.204,62.03,26.902,90.293c-5.514,29.397-16.011,67.213-16.011,67.213
						l-13.741-1.067c0,0,6.421-38.878,10.09-68.087c4.001-31.843-42.821-56.597-35.355-92.043
						C137.586,232.066,155.209,234.551,155.209,234.551z"/>
					<polygon style="fill:#407BFF;" points="168.094,392.704 150.783,391.101 150.653,386.497 169.351,386.442 					"/>
				</g>
				<g>
					<path style="fill:#FFFFFF;" d="M116.91,227.092l-1.34,3.127c-0.104,0.243,0.245,0.551,0.691,0.61l40.447,5.387
						c0.348,0.046,0.616-0.081,0.613-0.291l-0.052-3.312c-0.004-0.23-0.328-0.467-0.709-0.517l-39.055-5.201
						C117.217,226.856,116.977,226.936,116.91,227.092z"/>
					<path style="opacity:0.6;fill:#407BFF;" d="M116.91,227.092l-1.34,3.127c-0.104,0.243,0.245,0.551,0.691,0.61l40.447,5.387
						c0.348,0.046,0.616-0.081,0.613-0.291l-0.052-3.312c-0.004-0.23-0.328-0.467-0.709-0.517l-39.055-5.201
						C117.217,226.856,116.977,226.936,116.91,227.092z"/>
				</g>
				<path style="fill:#263238;" d="M121.822,232.165l-1.041-0.137c-0.207-0.027-0.354-0.154-0.327-0.282l0.946-4.368
					c0.028-0.128,0.22-0.21,0.427-0.183l1.041,0.137c0.207,0.027,0.354,0.154,0.327,0.282l-0.946,4.368
					C122.221,232.11,122.029,232.192,121.822,232.165z"/>
				<path style="fill:#263238;" d="M148.12,235.678l-1.041-0.137c-0.207-0.027-0.354-0.154-0.327-0.282l0.946-4.368
					c0.028-0.128,0.22-0.21,0.427-0.183l1.041,0.137c0.207,0.027,0.354,0.154,0.327,0.282l-0.946,4.368
					C148.519,235.623,148.327,235.705,148.12,235.678z"/>
			</g>
		</g>
		<g>
			<g>
				<path style="fill:#407BFF;" d="M199.637,182.336c-0.256,0-0.513-0.085-0.728-0.258c-0.497-0.402-0.573-1.132-0.172-1.629
					c4.854-5.998,6.646-14.046,4.793-21.528c-0.153-0.621,0.225-1.248,0.846-1.402c0.62-0.152,1.248,0.225,1.402,0.846
					c2.026,8.183,0.067,16.983-5.24,23.542C200.309,182.189,199.975,182.336,199.637,182.336z"/>
				<path style="fill:#407BFF;" d="M194.599,178.259c-0.256,0-0.513-0.085-0.728-0.259c-0.497-0.402-0.573-1.131-0.171-1.628
					c3.583-4.426,4.906-10.367,3.54-15.896c-0.153-0.62,0.226-1.248,0.847-1.401c0.613-0.151,1.247,0.225,1.401,0.847
					c1.539,6.227,0.048,12.922-3.989,17.907C195.27,178.111,194.936,178.259,194.599,178.259z"/>
				<path style="fill:#407BFF;" d="M189.561,174.176c-0.257,0-0.515-0.085-0.729-0.26c-0.496-0.403-0.571-1.133-0.168-1.629
					c2.318-2.851,3.171-6.683,2.281-10.253c-0.155-0.62,0.223-1.249,0.843-1.403c0.62-0.153,1.249,0.223,1.403,0.843
					c1.066,4.273,0.045,8.862-2.73,12.274C190.231,174.029,189.898,174.176,189.561,174.176z"/>
			</g>
			<path style="fill:#407BFF;" d="M199.637,182.336c-0.256,0-0.513-0.085-0.728-0.258c-0.497-0.402-0.573-1.132-0.172-1.629
				c4.854-5.998,6.646-14.046,4.793-21.528c-0.153-0.621,0.225-1.248,0.846-1.402c0.62-0.152,1.248,0.225,1.402,0.846
				c2.026,8.183,0.067,16.983-5.24,23.542C200.309,182.189,199.975,182.336,199.637,182.336z"/>
			<path style="fill:#407BFF;" d="M189.561,174.176c-0.257,0-0.515-0.085-0.729-0.26c-0.496-0.403-0.571-1.133-0.168-1.629
				c2.318-2.851,3.171-6.683,2.281-10.253c-0.155-0.62,0.223-1.249,0.843-1.403c0.62-0.153,1.249,0.223,1.403,0.843
				c1.066,4.273,0.045,8.862-2.73,12.274C190.231,174.029,189.898,174.176,189.561,174.176z"/>
		</g>
	</g>
</g>
</svg>
